<svg width="32" height="32" viewBox="0 0 32 32" fill="none" xmlns="http://www.w3.org/2000/svg">
<path d="M16.0001 31C22.5501 31 28.1001 26.85 30.1501 21H1.8501C3.9001 26.85 9.4501 31 16.0001 31Z" fill="#ED4C5C"/>
<path d="M16.0001 1C9.4501 1 3.9001 5.2 1.8501 11H30.1501C28.1001 5.2 22.5501 1 16.0001 1Z" fill="#FFE62E"/>
<path d="M30.15 21C30.7 19.45 31 17.75 31 16C31 14.25 30.7 12.55 30.15 11H1.85C1.3 12.55 1 14.25 1 16C1 17.75 1.3 19.45 1.85 21H30.15Z" fill="#699635"/>
<path d="M16 20.55L21.85 25L19.65 17.75L25.5 13.25H18.25L16 6L13.75 13.25H6.5L12.35 17.75L10.15 25L16 20.55Z" fill="white"/>
</svg>
